<svg id="Layer_1" data-name="Layer 1" xmlns="http://www.w3.org/2000/svg" viewBox="0 0 52.174 79.942">
  <path d="M294.027,454.7c-10.883-15.679-21.6-30.111-25.544-48.126A25.8,25.8,0,0,1,279.4,379.129a26.123,26.123,0,0,1,28.749-.123c8.993,5.9,14.061,16.779,10.936,27.317a158.657,158.657,0,0,1-11.308,26.93C304.083,440.453,299.055,446.969,294.027,454.7Zm-.2-7.329c9.307-13.389,17.9-26.2,21.385-41.623a21.588,21.588,0,0,0-9.04-23.143,21.9,21.9,0,0,0-24.486-.113,21.624,21.624,0,0,0-9.25,23.071C275.88,421.025,284.547,433.845,293.828,447.37Z" transform="translate(-267.833 -374.757)"/>
  <path d="M303.872,401.21a10.026,10.026,0,1,1-9.371-10.393A10.133,10.133,0,0,1,303.872,401.21Zm-9.837-6.422c-3.66.375-6.027,2.209-6.085,5.975a5.44,5.44,0,0,0,5.484,5.931c3.717.24,6.1-1.9,6.308-5.592C299.956,397.353,297.643,395.377,294.035,394.788Z" transform="translate(-267.833 -374.757)"/>
</svg>
