<svg id="Layer_1" data-name="Layer 1" xmlns="http://www.w3.org/2000/svg" viewBox="0 0 96.01 96.135">
  <path d="M49.5,98.7c-4-2.8-6.5-6.1-4.4-11.3a2.118,2.118,0,0,0,0-1.9c-8-12.9-8.4-28-12.7-42-2.8-9.4-4.8-19-7.1-28.5C23.1,6.2,14.2,3.5,7.4,9.6,4.7,12,2.6,10.7.5,8.7v-4c2.9-.7,5.9-2,8.8-2.1C26.7,2.4,26.7,2.5,31,19.5c2.3,9,2.3,9,11.4,9H90.8c6.4,0,6.7.5,4.4,6.6-3.9,10.4-8,20.8-11.7,31.3-1.2,3.3-2.8,4.7-6.5,4.6-10.8-.2-21.6-.1-32.4-.1.1,9.8,1.9,11.6,11.1,11.6,7.5,0,15,.3,22.5-.1,4.5-.3,6.7,1.5,8,5.4a8.118,8.118,0,0,1-2.7,9.4c-.6.5-1.3,1-1.9,1.5h-6c-4.6-2.6-5.7-6.8-5.1-11.6H60.3c1.1,5.2-.5,9-4.8,11.6ZM42.7,66.5c11.3,0,22.3.1,33.3-.1,1.3,0,3-1.7,3.6-3,2.2-5.2,4.1-10.5,6.1-15.8,1.8-4.7,3.5-9.5,5.3-14.4H34.4C37.2,44.4,40,55.3,42.7,66.5Zm15.2,24c-2.7-1.7-4.3-3.4-5.7-3.3-1.2.1-3.4,2.4-3.2,3.3.3,1.5,2.1,3.5,3.5,3.6,1.3.2,2.9-1.7,5.4-3.6ZM73,91c2.8,1.6,4.3,3.3,5.8,3.2,1.2-.1,3.3-2.5,3.1-3.4-.3-1.5-2.2-3.4-3.6-3.5-1.2-.2-2.7,1.8-5.3,3.7Z" transform="translate(-0.5 -2.565)"/>
</svg>
