<svg id="Layer_1" data-name="Layer 1" xmlns="http://www.w3.org/2000/svg" viewBox="0 0 96.01 96.135">
  <defs>
    <style>
      .cls-1 {
        fill: #fff;
      }
    </style>
  </defs>
  <path class="cls-1" d="M49,96.135c-4-2.8-6.5-6.1-4.4-11.3a2.118,2.118,0,0,0,0-1.9c-8-12.9-8.4-28-12.7-42-2.8-9.4-4.8-19-7.1-28.5-2.2-8.8-11.1-11.5-17.9-5.4-2.7,2.4-4.8,1.1-6.9-.9v-4c2.9-.7,5.9-2,8.8-2.1,17.4-.2,17.4-.1,21.7,16.9,2.3,9,2.3,9,11.4,9H90.3c6.4,0,6.7.5,4.4,6.6-3.9,10.4-8,20.8-11.7,31.3-1.2,3.3-2.8,4.7-6.5,4.6-10.8-.2-21.6-.1-32.4-.1.1,9.8,1.9,11.6,11.1,11.6,7.5,0,15,.3,22.5-.1,4.5-.3,6.7,1.5,8,5.4a8.119,8.119,0,0,1-2.7,9.4c-.6.5-1.3,1-1.9,1.5h-6c-4.6-2.6-5.7-6.8-5.1-11.6H59.8c1.1,5.2-.5,9-4.8,11.6Zm-6.8-32.2c11.3,0,22.3.1,33.3-.1,1.3,0,3-1.7,3.6-3,2.2-5.2,4.1-10.5,6.1-15.8,1.8-4.7,3.5-9.5,5.3-14.4H33.9C36.7,41.835,39.5,52.735,42.2,63.935Zm15.2,24c-2.7-1.7-4.3-3.4-5.7-3.3-1.2.1-3.4,2.4-3.2,3.3.3,1.5,2.1,3.5,3.5,3.6C53.3,91.735,54.9,89.835,57.4,87.935Zm15.1.5c2.8,1.6,4.3,3.3,5.8,3.2,1.2-.1,3.3-2.5,3.1-3.4-.3-1.5-2.2-3.4-3.6-3.5C76.6,84.535,75.1,86.535,72.5,88.435Z" transform="translate(0 0)"/>
</svg>
