<svg id="Layer_1" data-name="Layer 1" xmlns="http://www.w3.org/2000/svg" viewBox="0 0 96.04 96.118">
  <defs>
    <style>
      .cls-1 {
        fill: #d83636;
      }
    </style>
  </defs>
  <path class="cls-1" d="M49.5,98.726c-4.03-2.775-6.5-6.145-4.447-11.332a2.446,2.446,0,0,0,.038-1.882c-8.03-12.864-8.438-28.03-12.65-42.04-2.812-9.355-4.771-18.966-7.146-28.454C23.094,6.218,14.155,3.477,7.43,9.55,4.744,11.976,2.61,10.667.5,8.726v-4C3.441,4,6.376,2.678,9.327,2.643c17.353-.2,17.354-.1,21.657,16.859,2.294,9.043,2.294,9.043,11.432,9.043q24.21,0,48.415.006c6.392.006,6.7.5,4.4,6.613C91.306,45.577,87.265,55.949,83.5,66.42c-1.187,3.3-2.849,4.658-6.51,4.574-10.8-.247-21.6-.088-32.4-.088.08,9.767,1.9,11.633,11.1,11.638,7.487,0,14.994.333,22.453-.123,4.5-.274,6.691,1.514,7.972,5.411a8.052,8.052,0,0,1-2.672,9.38c-.625.532-1.3,1.011-1.944,1.514h-6c-4.58-2.58-5.7-6.8-5.094-11.594H60.339c1.138,5.169-.521,8.981-4.84,11.594ZM42.742,66.538c11.3,0,22.279.1,33.253-.138,1.261-.027,3.043-1.7,3.619-3.035,2.245-5.185,4.113-10.533,6.1-15.829,1.771-4.722,3.512-9.456,5.338-14.379H34.442C37.245,44.431,39.96,55.347,42.742,66.538Zm15.2,23.986c-2.727-1.676-4.262-3.353-5.711-3.281-1.2.059-3.4,2.407-3.2,3.327.312,1.47,2.145,3.464,3.516,3.617,1.293.145,2.819-1.8,5.4-3.661Zm15.1.51c2.77,1.624,4.342,3.273,5.789,3.169,1.2-.086,3.345-2.483,3.131-3.407-.338-1.46-2.221-3.412-3.6-3.537-1.292-.117-2.777,1.86-5.32,3.775Z" transform="translate(-0.499 -2.609)"/>
</svg>
