<svg id="Layer_1" data-name="Layer 1" xmlns="http://www.w3.org/2000/svg" viewBox="0 0 45.612 40.73">
  <defs>
    <style>
      .cls-1 {
        fill: #d83636;
        stroke: #d83636;
        stroke-miterlimit: 10;
        stroke-width: 4px;
      }
    </style>
  </defs>
  <path class="cls-1" d="M22.357,5.542c.9-.663,1.6-1.218,2.339-1.719,4.4-2.991,9.091-3.092,13.276-.3a12.12,12.12,0,0,1,4.957,12.394c-1,4.988-3.768,8.905-7.531,12.2a41.682,41.682,0,0,1-3.563,2.861c-3.113,2.181-6.274,4.293-9.762,6.669-4.251-3.148-8.63-6.158-12.738-9.5A20.364,20.364,0,0,1,1.984,16.882c-1.311-5.607.5-10.815,4.886-13.6C11.411.4,15.918.769,20.838,4.446,21.207,4.716,21.577,4.977,22.357,5.542Zm-.05,2.089c-.837-.795-1.556-1.546-2.347-2.21C16.613,2.609,12.855,1.946,8.88,3.8,4.733,5.734,2.812,9.147,2.923,13.707a16.342,16.342,0,0,0,4.585,10.66C11.7,29.06,17.022,32.3,22.585,36.045c4.679-3.665,9.407-7,13.691-10.833A15.271,15.271,0,0,0,41.69,12.641,10.227,10.227,0,0,0,25.545,4.847c-1.1.768-2.045,1.748-3.238,2.784Z" transform="translate(0.435 0.631)"/>
</svg>
