<svg id="Layer_1" data-name="Layer 1" xmlns="http://www.w3.org/2000/svg" viewBox="0 0 43.612 38.503">
  <defs>
    <style>
      .cls-1 {
        fill: #fff;
        stroke: #fff;
        stroke-miterlimit: 10;
        stroke-width: 2px;
      }
    </style>
  </defs>
  <path class="cls-1" d="M21.792,5.173c.9-.663,1.6-1.218,2.339-1.719,4.4-2.991,9.091-3.092,13.276-.3a12.12,12.12,0,0,1,4.957,12.394c-1,4.988-3.768,8.9-7.531,12.2a41.682,41.682,0,0,1-3.563,2.861C28.157,32.79,25,34.9,21.508,37.278c-4.251-3.148-8.63-6.158-12.738-9.5A20.365,20.365,0,0,1,1.419,16.513c-1.311-5.607.5-10.815,4.886-13.6C10.846.031,15.353.4,20.273,4.077,20.642,4.347,21.012,4.608,21.792,5.173Zm-.05,2.089c-.837-.795-1.556-1.546-2.347-2.21-3.347-2.812-7.1-3.475-11.08-1.621C4.168,5.365,2.247,8.778,2.358,13.338A16.342,16.342,0,0,0,6.943,24c4.192,4.693,9.514,7.933,15.077,11.678,4.679-3.665,9.407-7,13.691-10.833a15.271,15.271,0,0,0,5.414-12.571A10.227,10.227,0,0,0,24.98,4.478,42.578,42.578,0,0,0,21.742,7.262Z" transform="translate(-0.001 -0.002)"/>
</svg>
