<svg id="Layer_1" data-name="Layer 1" xmlns="http://www.w3.org/2000/svg" viewBox="0 0 412.9119 63.4359"><path d="M-294.7429,217.7523c3.52-2.1347,6.6685-4.831,10.3145-6.12,16.1358-5.7026,32.5556,5.1739,33.4076,22.2482.5719,11.4627.2774,22.9678.4278,34.4532.033,2.5156-.918,3.5465-3.5392,3.4925-11.9713-.2469-9.7392,1.5094-9.8949-9.4245-.1315-9.2409-.01-18.485-.0919-27.7269-.0442-5.0023-2.0916-9.1421-6.6783-11.2827a11.1988,11.1988,0,0,0-13.1785,2.3331,13.8922,13.8922,0,0,0-3.7087,8.4546c-.4277,11.1-.2747,22.2269-.1267,33.3409.0427,3.2042-.8582,4.4444-4.2319,4.3332-11.03-.3635-9.3233,1.552-9.4349-9.1959-.0972-9.3665-.261-18.7429.0568-28.1.2406-7.0826-5.382-11.5434-11.66-12.142-5.9108-.5636-10.6085,3.44-11.7827,10.1358a39.8218,39.8218,0,0,0-.3364,6.7164c-.0308,9.6172-.0885,19.2356.0419,28.8512.037,2.7286-.7864,3.693-3.6049,3.7326-9.6191.1351-9.6268.2353-9.6154-9.2749.0113-9.4921-.2384-18.995.1258-28.474.7516-19.5625,20.2151-27.6841,33.9572-22.3031C-300.7988,213.17-297.7983,215.8077-294.7429,217.7523Z" transform="translate(549.8784 -209.8634)"/><path d="M-488.691,230.4005l-36.6182,20.9135c1.036-5.4825,1.7108-9.8906,2.7938-14.1959.27-1.0729,1.7417-2.008,2.8591-2.6742,4.482-2.6725,9.0419-5.2144,14.06-8.0832-5.8333-4.6485-11.8751-5.5883-18.4478-3.5607-8.8426,2.7279-14.951,11.7146-13.9053,20.269,1.2174,9.959,8.3421,17.2372,17.6038,17.9828,10.3536.8336,18.7108-4.8112,21.5206-14.2354a8.5754,8.5754,0,0,1,3.21-4.1446c2.63-1.8443,5.5739-3.2413,8.43-4.8478,4.1611,12.0015-6.0871,28.4914-20.6013,33.5934-16.3347,5.7421-35.1712-3.56-40.53-20.0151a31.5494,31.5494,0,0,1,20.4715-39.8245C-512.022,206.46-493.4354,215.1667-488.691,230.4005Z" transform="translate(549.8784 -209.8634)"/><path d="M-376.739,272.72c-17.887.925-32.355-11.914-33.1959-30.1188-.7909-17.1236,13.4115-31.736,30.4566-32.5146a32.0363,32.0363,0,0,1,33.5206,30.619C-345.1442,257.5964-360.302,272.9458-376.739,272.72Zm-1.1047-12.3471c9.5607.68,18.9112-7.8662,18.99-19.03.0728-10.3653-8.8731-18.9165-19.3164-18.891a18.9852,18.9852,0,0,0-18.6316,19.0442C-396.7394,252.3854-388.7039,260.3861-377.8437,260.3733Z" transform="translate(549.8784 -209.8634)"/><path d="M-412.4931,250.4009c-3.6684,9.3421-9.326,15.9-17.9607,19.7734-14.3794,6.451-33.3011,1.4553-42.3349-11.1761-9.8107-13.7178-6.6411-31.6513,7.4837-42.3434,18.2685-13.8286,45.4429-5.64,52.3289,16.4174-4.4655,0-8.7566.2135-13-.1439-1.1176-.0942-2.186-1.8727-3.1072-3.0147-5.4488-6.7552-12.6741-8.906-20.743-6.8962-8.5591,2.132-14.0744,7.8075-15.4554,16.8277-1.4033,9.1665,7.1371,19.5417,16.8365,20.4455,8.1434.7589,15.3517-.9657,20.5441-8.0107a5.07,5.07,0,0,1,3.3723-1.7948C-420.7147,250.26-416.8794,250.4009-412.4931,250.4009Z" transform="translate(549.8784 -209.8634)"/><path d="M-229.5813,211.8905c0,2.379-.0046,4.2123.0007,6.0457.0279,9.618-.1231,19.2412.1493,28.8524a14.0385,14.0385,0,0,0,11.4632,13.4472c7.2981,1.3309,14.2271-2.095,16.8577-8.7a21.3536,21.3536,0,0,0,1.3066-7.292c.1676-7.3664.1572-14.7407.0183-22.1082-.0462-2.45.734-3.9254,2.9492-5.0038,3.1121-1.515,6.0816-3.3229,9.4357-5.1852a12.1513,12.1513,0,0,1,.7221,2.7513c-.1232,11.3557.1184,22.7365-.5749,34.0594-.859,14.0306-13.6722,24.8707-27.8265,24.3282-13.9113-.5332-24.4868-8.6964-26.8742-21.5966-1.0334-5.5842-.6153-11.4391-.8254-17.1721-.0595-1.6218-.0092-3.2476-.0091-4.8716C-242.7875,217.4045-242.29,216.71-229.5813,211.8905Z" transform="translate(549.8784 -209.8634)"/><path d="M-165.6543,250.1592c.1329,1.7186.1233,2.9573.3405,4.1549a7.8317,7.8317,0,0,0,9.2371,6.08c4.2171-.8737,6.76-4.3249,5.2269-8.1625-.8106-2.0284-2.9829-3.8793-4.9958-4.9689-2.5851-1.3992-5.6609-1.8624-8.4674-2.8874-9.546-3.4862-13.9443-11.5939-11.4634-20.9878,2.2228-8.4168,12.1362-14.6369,20.9819-13.1651,9.0466,1.5053,15.1874,7.7317,16.1778,16.2072.3144,2.6916-.3969,4.07-3.33,3.8461a36.5842,36.5842,0,0,0-4.8673.0061c-3.0969.1779-5.5063.0749-5.731-4.2329-.0661-1.2686-3.2423-3.3993-4.8737-3.2934a7.4431,7.4431,0,0,0-5.2234,3.6661c-.6024,1.2152.5411,4.43,1.8388,5.2227,2.9188,1.7836,6.394,2.6874,9.6865,3.8227,8.467,2.92,13.6129,8.9682,14.1013,16.6382.5381,8.4488-3.428,14.4538-10.5316,18.3454-7.8233,4.2858-15.65,3.7109-22.8827-1.56a18.8467,18.8467,0,0,1-8.017-15.7262c-.0083-.9956,1.3607-2.784,2.2232-2.8681C-172.798,249.9627-169.321,250.1592-165.6543,250.1592Z" transform="translate(549.8784 -209.8634)"/></svg>