<svg id="Layer_1" data-name="Layer 1" xmlns="http://www.w3.org/2000/svg" viewBox="0 0 261.253 149.293">
  <defs>
    <style>
      .cls-1, .cls-3 {
        fill: none;
        stroke-miterlimit: 10;
      }

      .cls-1 {
        stroke: #fff;
        stroke-width: 4px;
      }

      .cls-2 {
        fill: #fff;
      }

      .cls-3 {
        stroke: #000;
      }
    </style>
  </defs>
  <path class="cls-1" d="M170.8,559.54c-45.332-1.045-80.043-17.953-109.715-46.119-7.7-7.311-14.258-15.825-21.4-23.731-1.719-1.9-1.867-3.364-.171-5.545C66.491,449.437,100.055,424.824,144,416.474c29.714-5.646,57.972-.246,84.916,12.829,26.147,12.689,47.342,31.392,65.037,54.267,1.528,1.975,2.466,3.413.483,5.965-25.845,33.27-57.9,57.286-99.629,66.639C185.77,558.2,176.409,558.781,170.8,559.54Zm-3.9-122.054a49.342,49.342,0,1,0,49.408,49.034A49.163,49.163,0,0,0,166.9,437.486Z" transform="translate(-36.31 -412.25)"/>
  <path class="cls-2" d="M166.9,437.486a49.342,49.342,0,1,1-49.283,49.159A49.166,49.166,0,0,1,166.9,437.486Zm-.474,22.785c-10.961-.278-21.189,7.1-24.871,17.95-3.858,11.361-.026,23.139,9.928,30.521a26.766,26.766,0,0,0,30.855.082c8.9-6.539,13.368-17.482,10.556-25.828C174.148,484.154,168.934,479.677,166.425,460.271Z" transform="translate(-36.31 -412.25)"/>
  <circle class="cls-3" cx="130.593" cy="74.578" r="26.767"/>
</svg>
